<svg width="24" height="24" viewBox="0 0 24 24" fill="none" xmlns="http://www.w3.org/2000/svg">
<rect width="24" height="24" fill="#E5E5E5"/>
<g id="02. Mobile (Light)" clip-path="url(#clip0_0_1)">
<rect width="320" height="568" transform="translate(-264 -17)" fill="white"/>
<g id="Head">
<rect id="BG" x="-264" y="-17" width="320" height="568" fill="white"/>
<mask id="mask0_0_1" style="mask-type:luminance" maskUnits="userSpaceOnUse" x="-264" y="-17" width="320" height="568">
<rect id="BG_2" x="-264" y="-17" width="320" height="568" fill="white"/>
</mask>
<g mask="url(#mask0_0_1)">
</g>
<g id="Icon">
<path id="Shape" fill-rule="evenodd" clip-rule="evenodd" d="M6 10C4.9 10 4 10.9 4 12C4 13.1 4.9 14 6 14C7.1 14 8 13.1 8 12C8 10.9 7.1 10 6 10ZM18 10C16.9 10 16 10.9 16 12C16 13.1 16.9 14 18 14C19.1 14 20 13.1 20 12C20 10.9 19.1 10 18 10ZM10 12C10 10.9 10.9 10 12 10C13.1 10 14 10.9 14 12C14 13.1 13.1 14 12 14C10.9 14 10 13.1 10 12Z" fill="black"/>
<mask id="mask1_0_1" style="mask-type:luminance" maskUnits="userSpaceOnUse" x="4" y="10" width="16" height="4">
<path id="Shape_2" fill-rule="evenodd" clip-rule="evenodd" d="M6 10C4.9 10 4 10.9 4 12C4 13.1 4.9 14 6 14C7.1 14 8 13.1 8 12C8 10.9 7.1 10 6 10ZM18 10C16.9 10 16 10.9 16 12C16 13.1 16.9 14 18 14C19.1 14 20 13.1 20 12C20 10.9 19.1 10 18 10ZM10 12C10 10.9 10.9 10 12 10C13.1 10 14 10.9 14 12C14 13.1 13.1 14 12 14C10.9 14 10 13.1 10 12Z" fill="white"/>
</mask>
<g mask="url(#mask1_0_1)">
<g id="&#226;&#134;&#179; &#240;&#159;&#142;&#168;Color">
<rect id="Color" x="-18" y="-18" width="60" height="60" fill="#242635"/>
</g>
</g>
</g>
</g>
<g id="Grid" opacity="0.2">
<path id="BG_3" fill-rule="evenodd" clip-rule="evenodd" d="M-8 -17H24V39.8H-8V-17Z" stroke="#5C7CFA"/>
<path id="BG_4" fill-rule="evenodd" clip-rule="evenodd" d="M24 -17H56V39.8H24V-17Z" stroke="#5C7CFA"/>
</g>
</g>
<defs>
<clipPath id="clip0_0_1">
<rect width="320" height="568" fill="white" transform="translate(-264 -17)"/>
</clipPath>
</defs>
</svg>
